# xmcd
#
# Track frame offsets:
#	150
#	11388
#	27566
#	48444
#	65225
#	90287
#	105242
#	121173
#	145035
#	160241
#
# Disc length: 2347 seconds
#
# Revision: 1
# Processed by: cddbd v1.5.2PL0 Copyright (c) Steve Scherf et al.
# Submitted via: audiograbber 1.83.01
#
DISCID=7609290a
DTITLE=Michael Martin Murphey - Heart Never Lies
DYEAR=1983
DGENRE=Country
TTITLE0=Will It Be Love By Mornin'
TTITLE1=Don't Count the Rainy Days
TTITLE2=Disenchanted
TTITLE3=Goodbye Money Mountain
TTITLE4=Radio Land
TTITLE5=Maybe This Time
TTITLE6=Showdown
TTITLE7=Sacred Heart
TTITLE8=Crazy Blue
TTITLE9=The Heart Never Lies
EXTD=
EXTT0=
EXTT1=
EXTT2=
EXTT3=
EXTT4=
EXTT5=
EXTT6=
EXTT7=
EXTT8=
EXTT9=
PLAYORDER=
